<mxfile host="app.diagrams.net" agent="Mozilla/5.0 (Windows NT 10.0; Win64; x64) AppleWebKit/537.36 (KHTML, like Gecko) Chrome/127.0.0.0 Safari/537.36" version="24.7.12">
  <diagram id="C5RBs43oDa-KdzZeNtuy" name="Page-1">
    <mxGraphModel dx="1562" dy="810" grid="1" gridSize="10" guides="1" tooltips="1" connect="1" arrows="1" fold="1" page="1" pageScale="1" pageWidth="827" pageHeight="1169" math="0" shadow="0">
      <root>
        <mxCell id="WIyWlLk6GJQsqaUBKTNV-0" />
        <mxCell id="WIyWlLk6GJQsqaUBKTNV-1" parent="WIyWlLk6GJQsqaUBKTNV-0" />
        <mxCell id="kUisUQ0_eEQjOK5CTbPe-2" value="&lt;h1 style=&quot;margin-top: 0px;&quot;&gt;pom.xml&lt;/h1&gt;&lt;div style=&quot;background-color:#ffffff;color:#080808&quot;&gt;&lt;pre style=&quot;font-family: &amp;quot;JetBrains Mono&amp;quot;, monospace;&quot;&gt;&lt;font style=&quot;font-size: 11px;&quot;&gt;&amp;lt;&lt;span style=&quot;color: rgb(0, 66, 140); font-weight: bold;&quot;&gt;dependency&lt;/span&gt;&amp;gt;&lt;br&gt;    spring-cloud-consul&lt;br&gt;&amp;lt;/&lt;span style=&quot;color: rgb(0, 66, 140); font-weight: bold;&quot;&gt;dependency&lt;/span&gt;&amp;gt;&lt;/font&gt;&lt;/pre&gt;&lt;/div&gt;" style="text;html=1;whiteSpace=wrap;overflow=hidden;rounded=0;" vertex="1" parent="WIyWlLk6GJQsqaUBKTNV-1">
          <mxGeometry x="50" y="140" width="180" height="120" as="geometry" />
        </mxCell>
        <mxCell id="kUisUQ0_eEQjOK5CTbPe-3" value="&lt;h1 style=&quot;margin-top: 0px;&quot;&gt;&lt;font style=&quot;font-size: 18px;&quot;&gt;application.properties&lt;/font&gt;&lt;/h1&gt;&lt;p&gt;&lt;span style=&quot;color: #083080;&quot;&gt;spring.cloud.consul.xxxx=&lt;/span&gt;&lt;br&gt;&lt;/p&gt;" style="text;html=1;whiteSpace=wrap;overflow=hidden;rounded=0;" vertex="1" parent="WIyWlLk6GJQsqaUBKTNV-1">
          <mxGeometry x="50" y="270" width="200" height="100" as="geometry" />
        </mxCell>
        <mxCell id="kUisUQ0_eEQjOK5CTbPe-4" value="&lt;h1 style=&quot;margin-top: 0px;&quot;&gt;pom.xml&lt;/h1&gt;&lt;div style=&quot;background-color:#ffffff;color:#080808&quot;&gt;&lt;pre style=&quot;font-family: &amp;quot;JetBrains Mono&amp;quot;, monospace;&quot;&gt;&lt;font style=&quot;font-size: 11px;&quot;&gt;&amp;lt;&lt;span style=&quot;color: rgb(0, 66, 140); font-weight: bold;&quot;&gt;dependency&lt;/span&gt;&amp;gt;&lt;br&gt;    spring-cloud-nacos&lt;br&gt;&amp;lt;/&lt;span style=&quot;color: rgb(0, 66, 140); font-weight: bold;&quot;&gt;dependency&lt;/span&gt;&amp;gt;&lt;/font&gt;&lt;/pre&gt;&lt;/div&gt;" style="text;html=1;whiteSpace=wrap;overflow=hidden;rounded=0;" vertex="1" parent="WIyWlLk6GJQsqaUBKTNV-1">
          <mxGeometry x="414" y="140" width="180" height="120" as="geometry" />
        </mxCell>
        <mxCell id="kUisUQ0_eEQjOK5CTbPe-5" value="&lt;h1 style=&quot;margin-top: 0px;&quot;&gt;&lt;font style=&quot;font-size: 18px;&quot;&gt;application.properties&lt;/font&gt;&lt;/h1&gt;&lt;p&gt;&lt;span style=&quot;color: #083080;&quot;&gt;spring.cloud.nacso.xxx=&lt;/span&gt;&lt;br&gt;&lt;/p&gt;" style="text;html=1;whiteSpace=wrap;overflow=hidden;rounded=0;" vertex="1" parent="WIyWlLk6GJQsqaUBKTNV-1">
          <mxGeometry x="414" y="270" width="200" height="100" as="geometry" />
        </mxCell>
        <mxCell id="kUisUQ0_eEQjOK5CTbPe-6" value="" style="shape=flexArrow;endArrow=classic;html=1;rounded=0;" edge="1" parent="WIyWlLk6GJQsqaUBKTNV-1">
          <mxGeometry width="50" height="50" relative="1" as="geometry">
            <mxPoint x="250" y="230" as="sourcePoint" />
            <mxPoint x="380" y="230" as="targetPoint" />
          </mxGeometry>
        </mxCell>
      </root>
    </mxGraphModel>
  </diagram>
</mxfile>
